<?xml version="1.0" encoding="UTF-8" standalone="no"?>
<!-- Created with Inkscape (http://www.inkscape.org/) -->

<svg
   version="1.1"
   id="svg9"
   width="1200"
   height="1200"
   viewBox="0 0 1200 1200"
   sodipodi:docname="logoBackground.svg"
   inkscape:version="1.3.2 (091e20e, 2023-11-25)"
   xmlns:inkscape="http://www.inkscape.org/namespaces/inkscape"
   xmlns:sodipodi="http://sodipodi.sourceforge.net/DTD/sodipodi-0.dtd"
   xmlns="http://www.w3.org/2000/svg"
   xmlns:svg="http://www.w3.org/2000/svg">
  <defs
     id="defs13">
    <inkscape:path-effect
       effect="bspline"
       id="path-effect3902"
       is_visible="true"
       lpeversion="1"
       weight="33.333333"
       steps="2"
       helper_size="0"
       apply_no_weight="true"
       apply_with_weight="true"
       only_selected="false" />
    <inkscape:path-effect
       effect="bspline"
       id="path-effect132044"
       is_visible="true"
       lpeversion="1"
       weight="33.333333"
       steps="2"
       helper_size="0"
       apply_no_weight="true"
       apply_with_weight="true"
       only_selected="false" />
    <inkscape:path-effect
       effect="bspline"
       id="path-effect131394"
       is_visible="true"
       lpeversion="1"
       weight="33.333333"
       steps="2"
       helper_size="0"
       apply_no_weight="true"
       apply_with_weight="true"
       only_selected="false" />
    <inkscape:path-effect
       effect="bspline"
       id="path-effect129289"
       is_visible="true"
       lpeversion="1"
       weight="33.333333"
       steps="2"
       helper_size="0"
       apply_no_weight="true"
       apply_with_weight="true"
       only_selected="false" />
    <inkscape:path-effect
       effect="bspline"
       id="path-effect129281"
       is_visible="true"
       lpeversion="1"
       weight="33.333333"
       steps="2"
       helper_size="0"
       apply_no_weight="true"
       apply_with_weight="true"
       only_selected="false" />
    <inkscape:path-effect
       effect="bspline"
       id="path-effect122930"
       is_visible="true"
       lpeversion="1"
       weight="33.333333"
       steps="2"
       helper_size="0"
       apply_no_weight="true"
       apply_with_weight="true"
       only_selected="false" />
    <inkscape:path-effect
       effect="bspline"
       id="path-effect122911"
       is_visible="true"
       lpeversion="1"
       weight="33.333333"
       steps="2"
       helper_size="0"
       apply_no_weight="true"
       apply_with_weight="true"
       only_selected="false" />
    <inkscape:path-effect
       effect="bspline"
       id="path-effect122892"
       is_visible="true"
       lpeversion="1"
       weight="33.333333"
       steps="2"
       helper_size="0"
       apply_no_weight="true"
       apply_with_weight="true"
       only_selected="false" />
    <inkscape:path-effect
       effect="bspline"
       id="path-effect122873"
       is_visible="true"
       lpeversion="1"
       weight="33.333333"
       steps="2"
       helper_size="0"
       apply_no_weight="true"
       apply_with_weight="true"
       only_selected="false" />
    <inkscape:path-effect
       effect="bspline"
       id="path-effect122534"
       is_visible="true"
       lpeversion="1"
       weight="33.333333"
       steps="2"
       helper_size="0"
       apply_no_weight="true"
       apply_with_weight="true"
       only_selected="false" />
    <inkscape:path-effect
       effect="bspline"
       id="path-effect122515"
       is_visible="true"
       lpeversion="1"
       weight="33.333333"
       steps="2"
       helper_size="0"
       apply_no_weight="true"
       apply_with_weight="true"
       only_selected="false" />
    <inkscape:path-effect
       effect="bspline"
       id="path-effect122496"
       is_visible="true"
       lpeversion="1"
       weight="33.333333"
       steps="2"
       helper_size="0"
       apply_no_weight="true"
       apply_with_weight="true"
       only_selected="false" />
    <inkscape:path-effect
       effect="bspline"
       id="path-effect122477"
       is_visible="true"
       lpeversion="1"
       weight="33.333333"
       steps="2"
       helper_size="0"
       apply_no_weight="true"
       apply_with_weight="true"
       only_selected="false" />
    <inkscape:path-effect
       effect="bspline"
       id="path-effect87304"
       is_visible="true"
       lpeversion="1"
       weight="33.333333"
       steps="2"
       helper_size="0"
       apply_no_weight="true"
       apply_with_weight="true"
       only_selected="false" />
    <inkscape:path-effect
       effect="bspline"
       id="path-effect92657"
       is_visible="true"
       lpeversion="1"
       weight="33.333333"
       steps="2"
       helper_size="0"
       apply_no_weight="true"
       apply_with_weight="true"
       only_selected="false" />
    <inkscape:path-effect
       effect="bspline"
       id="path-effect92649"
       is_visible="true"
       lpeversion="1"
       weight="33.333333"
       steps="2"
       helper_size="0"
       apply_no_weight="true"
       apply_with_weight="true"
       only_selected="false" />
    <inkscape:path-effect
       effect="bspline"
       id="path-effect92645"
       is_visible="true"
       lpeversion="1"
       weight="33.333333"
       steps="2"
       helper_size="0"
       apply_no_weight="true"
       apply_with_weight="true"
       only_selected="false" />
    <inkscape:path-effect
       effect="bspline"
       id="path-effect92641"
       is_visible="true"
       lpeversion="1"
       weight="33.333333"
       steps="2"
       helper_size="0"
       apply_no_weight="true"
       apply_with_weight="true"
       only_selected="false" />
    <inkscape:path-effect
       effect="bspline"
       id="path-effect92637"
       is_visible="true"
       lpeversion="1"
       weight="33.333333"
       steps="2"
       helper_size="0"
       apply_no_weight="true"
       apply_with_weight="true"
       only_selected="false" />
    <inkscape:path-effect
       effect="bspline"
       id="path-effect92633"
       is_visible="true"
       lpeversion="1"
       weight="33.333333"
       steps="2"
       helper_size="0"
       apply_no_weight="true"
       apply_with_weight="true"
       only_selected="false" />
    <inkscape:path-effect
       effect="bspline"
       id="path-effect92629"
       is_visible="true"
       lpeversion="1"
       weight="33.333333"
       steps="2"
       helper_size="0"
       apply_no_weight="true"
       apply_with_weight="true"
       only_selected="false" />
    <inkscape:path-effect
       effect="bspline"
       id="path-effect92515"
       is_visible="true"
       lpeversion="1"
       weight="33.333333"
       steps="2"
       helper_size="0"
       apply_no_weight="true"
       apply_with_weight="true"
       only_selected="false" />
    <inkscape:path-effect
       effect="bspline"
       id="path-effect92507"
       is_visible="true"
       lpeversion="1"
       weight="33.333333"
       steps="2"
       helper_size="0"
       apply_no_weight="true"
       apply_with_weight="true"
       only_selected="false" />
    <inkscape:path-effect
       effect="bspline"
       id="path-effect92495"
       is_visible="true"
       lpeversion="1"
       weight="33.333333"
       steps="2"
       helper_size="0"
       apply_no_weight="true"
       apply_with_weight="true"
       only_selected="false" />
    <inkscape:path-effect
       effect="bspline"
       id="path-effect92491"
       is_visible="true"
       lpeversion="1"
       weight="33.333333"
       steps="2"
       helper_size="0"
       apply_no_weight="true"
       apply_with_weight="true"
       only_selected="false" />
    <inkscape:path-effect
       effect="bspline"
       id="path-effect92487"
       is_visible="true"
       lpeversion="1"
       weight="33.333333"
       steps="2"
       helper_size="0"
       apply_no_weight="true"
       apply_with_weight="true"
       only_selected="false" />
    <inkscape:path-effect
       effect="bspline"
       id="path-effect92483"
       is_visible="true"
       lpeversion="1"
       weight="33.333333"
       steps="2"
       helper_size="0"
       apply_no_weight="true"
       apply_with_weight="true"
       only_selected="false" />
    <inkscape:path-effect
       effect="bspline"
       id="path-effect91971"
       is_visible="true"
       lpeversion="1"
       weight="33.333333"
       steps="2"
       helper_size="0"
       apply_no_weight="true"
       apply_with_weight="true"
       only_selected="false" />
    <inkscape:path-effect
       effect="bspline"
       id="path-effect91967"
       is_visible="true"
       lpeversion="1"
       weight="33.333333"
       steps="2"
       helper_size="0"
       apply_no_weight="true"
       apply_with_weight="true"
       only_selected="false" />
    <inkscape:path-effect
       effect="bspline"
       id="path-effect91963"
       is_visible="true"
       lpeversion="1"
       weight="33.333333"
       steps="2"
       helper_size="0"
       apply_no_weight="true"
       apply_with_weight="true"
       only_selected="false" />
    <inkscape:path-effect
       effect="bspline"
       id="path-effect91959"
       is_visible="true"
       lpeversion="1"
       weight="33.333333"
       steps="2"
       helper_size="0"
       apply_no_weight="true"
       apply_with_weight="true"
       only_selected="false" />
    <inkscape:path-effect
       effect="bspline"
       id="path-effect91955"
       is_visible="true"
       lpeversion="1"
       weight="33.333333"
       steps="2"
       helper_size="0"
       apply_no_weight="true"
       apply_with_weight="true"
       only_selected="false" />
    <inkscape:path-effect
       effect="bspline"
       id="path-effect91951"
       is_visible="true"
       lpeversion="1"
       weight="33.333333"
       steps="2"
       helper_size="0"
       apply_no_weight="true"
       apply_with_weight="true"
       only_selected="false" />
    <inkscape:path-effect
       effect="bspline"
       id="path-effect91947"
       is_visible="true"
       lpeversion="1"
       weight="33.333333"
       steps="2"
       helper_size="0"
       apply_no_weight="true"
       apply_with_weight="true"
       only_selected="false" />
    <inkscape:path-effect
       effect="bspline"
       id="path-effect91943"
       is_visible="true"
       lpeversion="1"
       weight="33.333333"
       steps="2"
       helper_size="0"
       apply_no_weight="true"
       apply_with_weight="true"
       only_selected="false" />
    <inkscape:path-effect
       effect="bspline"
       id="path-effect91939"
       is_visible="true"
       lpeversion="1"
       weight="33.333333"
       steps="2"
       helper_size="0"
       apply_no_weight="true"
       apply_with_weight="true"
       only_selected="false" />
    <inkscape:path-effect
       effect="bspline"
       id="path-effect91935"
       is_visible="true"
       lpeversion="1"
       weight="33.333333"
       steps="2"
       helper_size="0"
       apply_no_weight="true"
       apply_with_weight="true"
       only_selected="false" />
    <inkscape:path-effect
       effect="bspline"
       id="path-effect91931"
       is_visible="true"
       lpeversion="1"
       weight="33.333333"
       steps="2"
       helper_size="0"
       apply_no_weight="true"
       apply_with_weight="true"
       only_selected="false" />
    <inkscape:path-effect
       effect="bspline"
       id="path-effect91927"
       is_visible="true"
       lpeversion="1"
       weight="33.333333"
       steps="2"
       helper_size="0"
       apply_no_weight="true"
       apply_with_weight="true"
       only_selected="false" />
    <inkscape:path-effect
       effect="bspline"
       id="path-effect91923"
       is_visible="true"
       lpeversion="1"
       weight="33.333333"
       steps="2"
       helper_size="0"
       apply_no_weight="true"
       apply_with_weight="true"
       only_selected="false" />
    <inkscape:path-effect
       effect="bspline"
       id="path-effect91919"
       is_visible="true"
       lpeversion="1"
       weight="33.333333"
       steps="2"
       helper_size="0"
       apply_no_weight="true"
       apply_with_weight="true"
       only_selected="false" />
    <inkscape:path-effect
       effect="bspline"
       id="path-effect91915"
       is_visible="true"
       lpeversion="1"
       weight="33.333333"
       steps="2"
       helper_size="0"
       apply_no_weight="true"
       apply_with_weight="true"
       only_selected="false" />
    <inkscape:path-effect
       effect="bspline"
       id="path-effect91911"
       is_visible="true"
       lpeversion="1"
       weight="33.333333"
       steps="2"
       helper_size="0"
       apply_no_weight="true"
       apply_with_weight="true"
       only_selected="false" />
    <inkscape:path-effect
       effect="bspline"
       id="path-effect91907"
       is_visible="true"
       lpeversion="1"
       weight="33.333333"
       steps="2"
       helper_size="0"
       apply_no_weight="true"
       apply_with_weight="true"
       only_selected="false" />
    <inkscape:path-effect
       effect="bspline"
       id="path-effect91903"
       is_visible="true"
       lpeversion="1"
       weight="33.333333"
       steps="2"
       helper_size="0"
       apply_no_weight="true"
       apply_with_weight="true"
       only_selected="false" />
    <inkscape:path-effect
       effect="bspline"
       id="path-effect91899"
       is_visible="true"
       lpeversion="1"
       weight="33.333333"
       steps="2"
       helper_size="0"
       apply_no_weight="true"
       apply_with_weight="true"
       only_selected="false" />
    <inkscape:path-effect
       effect="bspline"
       id="path-effect91895"
       is_visible="true"
       lpeversion="1"
       weight="33.333333"
       steps="2"
       helper_size="0"
       apply_no_weight="true"
       apply_with_weight="true"
       only_selected="false" />
    <inkscape:path-effect
       effect="bspline"
       id="path-effect91891"
       is_visible="true"
       lpeversion="1"
       weight="33.333333"
       steps="2"
       helper_size="0"
       apply_no_weight="true"
       apply_with_weight="true"
       only_selected="false" />
    <inkscape:path-effect
       effect="bspline"
       id="path-effect91883"
       is_visible="true"
       lpeversion="1"
       weight="33.333333"
       steps="2"
       helper_size="0"
       apply_no_weight="true"
       apply_with_weight="true"
       only_selected="false" />
    <inkscape:path-effect
       effect="bspline"
       id="path-effect91879"
       is_visible="true"
       lpeversion="1"
       weight="33.333333"
       steps="2"
       helper_size="0"
       apply_no_weight="true"
       apply_with_weight="true"
       only_selected="false" />
    <inkscape:path-effect
       effect="bspline"
       id="path-effect27153"
       is_visible="true"
       lpeversion="1"
       weight="33.333333"
       steps="2"
       helper_size="0"
       apply_no_weight="true"
       apply_with_weight="true"
       only_selected="false" />
    <inkscape:path-effect
       effect="bspline"
       id="path-effect26367"
       is_visible="true"
       lpeversion="1"
       weight="33.333333"
       steps="2"
       helper_size="0"
       apply_no_weight="true"
       apply_with_weight="true"
       only_selected="false" />
    <inkscape:path-effect
       effect="bspline"
       id="path-effect26359"
       is_visible="true"
       lpeversion="1"
       weight="33.333333"
       steps="2"
       helper_size="0"
       apply_no_weight="true"
       apply_with_weight="true"
       only_selected="false" />
    <inkscape:path-effect
       effect="bspline"
       id="path-effect26355"
       is_visible="true"
       lpeversion="1"
       weight="33.333333"
       steps="2"
       helper_size="0"
       apply_no_weight="true"
       apply_with_weight="true"
       only_selected="false" />
    <inkscape:path-effect
       effect="bspline"
       id="path-effect26351"
       is_visible="true"
       lpeversion="1"
       weight="33.333333"
       steps="2"
       helper_size="0"
       apply_no_weight="true"
       apply_with_weight="true"
       only_selected="false" />
    <inkscape:path-effect
       effect="bspline"
       id="path-effect26347"
       is_visible="true"
       lpeversion="1"
       weight="33.333333"
       steps="2"
       helper_size="0"
       apply_no_weight="true"
       apply_with_weight="true"
       only_selected="false" />
    <inkscape:path-effect
       effect="bspline"
       id="path-effect24791"
       is_visible="true"
       lpeversion="1"
       weight="33.333333"
       steps="2"
       helper_size="0"
       apply_no_weight="true"
       apply_with_weight="true"
       only_selected="false" />
    <inkscape:path-effect
       effect="bspline"
       id="path-effect8960"
       is_visible="true"
       lpeversion="1"
       weight="33.333333"
       steps="2"
       helper_size="0"
       apply_no_weight="true"
       apply_with_weight="true"
       only_selected="false" />
    <inkscape:path-effect
       effect="bspline"
       id="path-effect26359-2"
       is_visible="true"
       lpeversion="1"
       weight="33.333333"
       steps="2"
       helper_size="0"
       apply_no_weight="true"
       apply_with_weight="true"
       only_selected="false"
       uniform="false" />
    <inkscape:path-effect
       effect="bspline"
       id="path-effect26355-9"
       is_visible="true"
       lpeversion="1"
       weight="33.333333"
       steps="2"
       helper_size="0"
       apply_no_weight="true"
       apply_with_weight="true"
       only_selected="false"
       uniform="false" />
    <inkscape:path-effect
       effect="bspline"
       id="path-effect26355-2"
       is_visible="true"
       lpeversion="1"
       weight="33.333333"
       steps="2"
       helper_size="0"
       apply_no_weight="true"
       apply_with_weight="true"
       only_selected="false"
       uniform="false" />
    <inkscape:path-effect
       effect="bspline"
       id="path-effect91891-8"
       is_visible="true"
       lpeversion="1"
       weight="33.333333"
       steps="2"
       helper_size="0"
       apply_no_weight="true"
       apply_with_weight="true"
       only_selected="false"
       uniform="false" />
    <inkscape:path-effect
       effect="bspline"
       id="path-effect91895-0"
       is_visible="true"
       lpeversion="1"
       weight="33.333333"
       steps="2"
       helper_size="0"
       apply_no_weight="true"
       apply_with_weight="true"
       only_selected="false"
       uniform="false" />
    <inkscape:path-effect
       effect="bspline"
       id="path-effect91899-4"
       is_visible="true"
       lpeversion="1"
       weight="33.333333"
       steps="2"
       helper_size="0"
       apply_no_weight="true"
       apply_with_weight="true"
       only_selected="false"
       uniform="false" />
    <inkscape:path-effect
       effect="bspline"
       id="path-effect91903-1"
       is_visible="true"
       lpeversion="1"
       weight="33.333333"
       steps="2"
       helper_size="0"
       apply_no_weight="true"
       apply_with_weight="true"
       only_selected="false"
       uniform="false" />
    <inkscape:path-effect
       effect="bspline"
       id="path-effect91907-0"
       is_visible="true"
       lpeversion="1"
       weight="33.333333"
       steps="2"
       helper_size="0"
       apply_no_weight="true"
       apply_with_weight="true"
       only_selected="false"
       uniform="false" />
    <inkscape:path-effect
       effect="bspline"
       id="path-effect91911-9"
       is_visible="true"
       lpeversion="1"
       weight="33.333333"
       steps="2"
       helper_size="0"
       apply_no_weight="true"
       apply_with_weight="true"
       only_selected="false"
       uniform="false" />
    <inkscape:path-effect
       effect="bspline"
       id="path-effect91915-3"
       is_visible="true"
       lpeversion="1"
       weight="33.333333"
       steps="2"
       helper_size="0"
       apply_no_weight="true"
       apply_with_weight="true"
       only_selected="false"
       uniform="false" />
    <inkscape:path-effect
       effect="bspline"
       id="path-effect91919-0"
       is_visible="true"
       lpeversion="1"
       weight="33.333333"
       steps="2"
       helper_size="0"
       apply_no_weight="true"
       apply_with_weight="true"
       only_selected="false"
       uniform="false" />
    <inkscape:path-effect
       effect="bspline"
       id="path-effect91923-1"
       is_visible="true"
       lpeversion="1"
       weight="33.333333"
       steps="2"
       helper_size="0"
       apply_no_weight="true"
       apply_with_weight="true"
       only_selected="false"
       uniform="false" />
    <inkscape:path-effect
       effect="bspline"
       id="path-effect91927-6"
       is_visible="true"
       lpeversion="1"
       weight="33.333333"
       steps="2"
       helper_size="0"
       apply_no_weight="true"
       apply_with_weight="true"
       only_selected="false"
       uniform="false" />
  </defs>
  <sodipodi:namedview
     id="namedview11"
     pagecolor="#505050"
     bordercolor="#eeeeee"
     borderopacity="1"
     inkscape:pageshadow="0"
     inkscape:pageopacity="0"
     inkscape:pagecheckerboard="0"
     showgrid="false"
     inkscape:zoom="0.59770835"
     inkscape:cx="-25.93238"
     inkscape:cy="803.06725"
     inkscape:window-width="3370"
     inkscape:window-height="1376"
     inkscape:window-x="0"
     inkscape:window-y="0"
     inkscape:window-maximized="1"
     inkscape:current-layer="g15"
     showguides="false"
     inkscape:guide-bbox="true"
     inkscape:showpageshadow="0"
     inkscape:deskcolor="#505050" />
  <g
     inkscape:groupmode="layer"
     inkscape:label="Image"
     id="g15">
    <path
       id="path20696"
       style="fill:#002a00;fill-opacity:1;stroke:#001b00;stroke-width:1.17395;stroke-miterlimit:4;stroke-dasharray:none;stroke-opacity:1"
       d="m 596.89412,6.9460348 c -25.61927,0.007 -50.31509,0.48166 -53.34961,1.41796 -2.58858,0.7987 -10.91383,2.2260502 -18.5,3.1738302 -20.99268,2.62272 -48.43748,7.55977 -59.77149,10.75195 -2.5287,0.71222 -8.7355,2.14268 -13.79297,3.17774 -5.05744,1.03506 -9.88365,2.39176 -10.72656,3.01562 -0.84291,0.62386 -5.32687,2.19218 -9.96289,3.48438 -27.00552,7.527305 -37.28527,11.146975 -51.10156,17.998055 -3.24058,1.60689 -6.59866,2.92187 -7.46289,2.92187 -0.86425,0 -7.86852,3.00139 -15.56445,6.66992 -7.69595,3.66854 -15.02665,7.11279 -16.29102,7.6543 -1.26437,0.54151 -5.74836,3.02669 -9.96289,5.52148 -4.21456,2.49479 -11.27508,6.24923 -15.68945,8.34375 -4.4144,2.09452 -10.34003,5.57395 -13.16993,7.73243 -2.82987,2.15847 -6.24795,3.92578 -7.59375,3.92578 -1.34577,0 -2.87604,0.69537 -3.40234,1.54687 -0.5263,0.85152 -7.80962,6.08179 -16.18359,11.62109 -8.3741,5.53934 -15.22461,10.70462 -15.22461,11.47852 0,0.7739 -0.90437,1.40625 -2.00977,1.40625 -1.1055,0 -3.34772,1.20654 -4.98242,2.68164 -1.6348,1.47509 -5.73059,4.71505 -9.10156,7.19922 -3.3709,2.48418 -6.47303,4.90716 -6.89453,5.38476 -0.4214,0.4776 -4.55932,3.95372 -9.19532,7.72461 -4.63597,3.77092 -12.14196,10.486 -16.67773,14.92188 -4.5359,4.43584 -8.68365,8.06445 -9.21875,8.06445 -3.0839,0 -49.09936,51.54063 -61.89063,69.32227 -1.50057,2.0861 -4.77612,6.08688 -7.27929,8.89062 -2.5031,2.80374 -4.55078,5.61522 -4.55078,6.2461 0,0.63085 -0.86897,2.05803 -1.93164,3.17187 -2.5843,2.70869 -22.58985,33.09393 -22.58985,34.31055 0,0.5265 -1.35903,2.86535 -3.019527,5.19726 -4.19879,5.89661 -15.63613,27.16382 -23.9375,44.50977 -3.83229,8.00763 -8.29904,17.2106 -9.92774,20.45117 -1.62869,3.24058 -2.96093,6.84094 -2.96093,8 0,1.15908 -1.3904,4.57945 -3.08789,7.60156 -3.38769,6.03157 -19.90235,54.26931 -19.90235,58.13282 0,1.32474 -0.65307,3.60472 -1.45117,5.06835 -5.49498,10.07776 -18.4707,82.04568 -18.4707,102.44141 0,1.77822 7.51613,2.13672 44.82422,2.13672 48.582747,0 107.272147,2.40382 116.482417,4.77148 11.08237,2.84887 12.68897,11.22256 11.04297,57.5293 l -1.10938,31.18555 -20.10351,-0.0254 c -18.62114,-0.0239 -48.88888,1.14322 -117.984377,4.55078 -15.52875,0.76582 -28.09159,2.0603 -29.02148,2.99023 -2.62769,2.62765 -1.95967,34.44881 1.04882,49.95508 3.4201,17.62809 11.12789,50.07222 14.01758,59.00391 1.2272,3.79307 4.72886,14.82803 7.78125,24.52147 6.41658,20.3771 18.99657,52.6365 20.81836,53.3848 0.6841,0.281 1.24414,1.5546 1.24414,2.832 0,2.3381 10.64568,24.233 16.63086,34.2051 1.7707,2.9502 4.9747,8.4667 7.1211,12.2598 6.98528,12.3444 10.683257,18.2507 13.414057,21.4316 1.4751,1.7182 2.68164,3.5122 2.68164,3.9863 0,0.9249 16.12081,24.4812 18.97461,27.7266 0.9433,1.0727 2.91115,3.5198 4.37305,5.4375 12.61574,16.54834 20.16626,25.91804 24.92773,30.93164 1.6858,1.7752 4.98483,5.7945 7.33203,8.9317 5.0673,6.7728 45.56711,47.4592 53.79688,54.0449 3.16007,2.5287 8.63135,7.3729 12.15625,10.7656 3.52497,3.3927 9.16736,8.1967 12.53906,10.6738 3.3716,2.4771 7.02966,5.3797 8.13086,6.4512 3.6542,3.5559 19.32292,15.1531 28.65039,21.207 5.05747,3.2824 9.53944,6.3397 9.96094,6.793 0.9484,1.0199 14.55204,9.456 26.82031,16.6328 12.51583,7.3215 37.60591,20.1973 39.35742,20.1973 0.78342,0 4.3174,1.316 7.85352,2.9257 12.52163,5.7003 41.8642,16.7259 55.4707,20.8418 7.58618,2.2948 20.18129,6.1602 27.98828,8.5918 7.80697,2.4316 15.92066,4.4219 18.0293,4.4219 2.10863,0 5.03048,0.6162 6.49414,1.3692 3.54933,1.8258 15.25951,4.2581 30.24805,6.2832 18.17516,2.4557 45.01976,6.3618 52.87304,7.6933 3.79311,0.6431 23.99112,1.2478 44.88477,1.3418 36.71193,0.1657 39.41702,-0.036 80.46094,-5.9726 23.35907,-3.379 45.22796,-6.8709 48.59961,-7.7598 3.37161,-0.8888 10.56092,-2.6209 15.97461,-3.8496 5.41365,-1.2286 10.58599,-2.8235 11.49414,-3.543 0.90812,-0.7194 3.71933,-1.6611 6.24804,-2.0937 7.88788,-1.3496 22.1782,-5.6278 26.82227,-8.0293 2.44428,-1.264 5.54562,-2.2969 6.89258,-2.2969 1.34691,0 5.30373,-1.3806 8.79298,-3.0664 3.48922,-1.6858 7.59359,-3.0645 9.12109,-3.0645 1.52749,0 2.77734,-0.5587 2.77734,-1.2422 0,-0.6836 3.40867,-2.1179 7.57422,-3.1855 4.16558,-1.0676 8.38771,-2.9221 9.38281,-4.1211 0.99511,-1.1991 2.51778,-2.1797 3.38282,-2.1797 1.46017,0 6.05481,-2.1046 31.38476,-14.3769 5.2682,-2.5525 9.57813,-5.1058 9.57813,-5.6739 0,-0.5681 2.241,-1.9312 4.98047,-3.0293 2.73943,-1.0981 8.61498,-4.2848 13.05664,-7.082 4.44162,-2.7973 8.57953,-5.0879 9.19533,-5.0879 0.6158,0 5.0936,-2.7606 9.9492,-6.1308 4.8556,-3.3705 9.2662,-6.129 9.8027,-6.129 0.5365,0 3.9212,-2.4131 7.5215,-5.3632 3.6003,-2.9502 7.2933,-5.3633 8.2051,-5.3633 0.9118,0 1.6582,-0.673 1.6582,-1.4942 0,-0.8213 2.0023,-2.5286 4.4512,-3.7949 2.4488,-1.2664 5.6148,-3.4644 7.0351,-4.8847 1.4203,-1.4203 5.2232,-4.3672 8.4512,-6.5489 3.228,-2.1817 8.5118,-6.3874 11.7402,-9.3437 3.2285,-2.9564 9.9532,-8.8169 14.9434,-13.0254 10.03459,-8.4625 37.26038,-35.3527 42.35548,-41.832 1.788,-2.2742 6.4665,-7.8138 10.3945,-12.3106 14.759,-16.896 18.3237,-21.2042 25.6621,-31.0136 18.7516,-25.06604 29.622,-41.78414 41.0391,-63.10944 1.6923,-3.1609 3.6396,-5.7461 4.3261,-5.7461 0.6866,0 1.2481,-1.1318 1.2481,-2.5137 0,-1.3818 1.9336,-5.6918 4.2968,-9.5781 7.334,-12.0604 24.8223,-49.2632 24.8223,-52.8047 0,-1.0579 0.6246,-2.5801 1.3887,-3.3808 1.6032,-1.6801 19.0785,-52.95668 22.4199,-65.7852 1.2343,-4.73853 2.2441,-10.25019 2.2441,-12.24609 0,-1.99591 0.639,-3.8577 1.42,-4.13868 0.781,-0.28097 2.5185,-6.37236 3.8613,-13.53711 1.3427,-7.16472 3.1041,-16.47687 3.9141,-20.6914 2.4824,-12.91657 3.2052,-27.06666 1.957,-38.3125 l -1.1895,-10.72852 -15.3261,-0.94531 c -47.258,-2.91612 -107.3837,-5.51424 -133.5215,-5.76953 l -18.5781,-0.18164 -1.0801,-28.73633 c -1.1701,-31.12552 0.2591,-46.24562 4.8515,-51.32813 1.5038,-1.66425 5.8378,-4.59282 9.6309,-6.50781 9.7943,-4.94471 39.4943,-6.91406 104.2422,-6.91406 h 52.4531 l -0.7617,-23.37305 c -0.858,-26.34865 -4.0334,-44.4271 -13.2227,-75.27929 -3.7554,-12.60856 -8.899,-27.61808 -10.7148,-31.27149 -0.7224,-1.45363 -2.8925,-7.64475 -4.8242,-13.75586 -1.9317,-6.11108 -4.0955,-11.10937 -4.8067,-11.10937 -0.7111,0 -1.2929,-1.35847 -1.2929,-3.01758 0,-3.59603 -12.2436,-32.77564 -14.0606,-33.50977 -0.6954,-0.28099 -1.2656,-1.75584 -1.2656,-3.27734 0,-3.44247 -21.7562,-45.85805 -32.627,-63.60938 -13.9001,-22.69831 -34.9738,-52.33225 -43.8457,-61.65625 -1.771,-1.86127 -3.2207,-3.73585 -3.2207,-4.16406 0,-3.32469 -70.98988,-74.44531 -74.30858,-74.44531 -0.5092,0 -2.5178,-1.55072 -4.4628,-3.44727 -5.4618,-5.32549 -11.5739,-10.3457 -12.5977,-10.3457 -0.5088,0 -4.1251,-2.66855 -8.0352,-5.92969 -3.91,-3.26112 -12.97,-9.82851 -20.1347,-14.5957 -7.1647,-4.76718 -13.7177,-9.17905 -14.5606,-9.80273 C 909.73392,91.99718 877.48065,74.09578 859.90975,65.75657 836.79574,54.78659 834.58764,53.82303 805.5035,42.03978 791.91337,36.533835 744.99029,23.118055 726.57576,19.473375 c -4.63601,-0.91758 -13.60004,-2.69638 -19.92188,-3.95313 -6.32181,-1.25675 -18.04704,-3.06679 -26.05468,-4.02343 -8.00766,-0.95665 -19.17408,-2.3794702 -24.81446,-3.1621102 -6.72942,-0.93376 -33.27138,-1.39534 -58.89062,-1.38867 z M 349.3199,633.73061 H 269.87263 V 589.2853 544.84194 h 32.1836 l 51.39318,-0.0291 c 0,0 6.71705,0.0247 53.20447,-0.0197 42.37817,-0.0405 53.52971,-0.25979 53.52971,-0.25979 l 96.38474,-2.30045 c 0,0 0.0743,-189.3837 -0.0355,-187.82843 l -0.58399,-88.30664 c -0.32131,-48.56816 -1.11776,-91.03372 -1.77148,-94.36719 -1.87189,-9.54522 -4.08766,-10.82657 -18.29688,-10.59375 -10.65374,0.17454 -34.42927,3.9308 -37.71093,5.95898 -0.595,0.36774 -4.79175,1.6785 -9.32617,2.91211 -9.53672,2.59452 -43.67985,14.5571 -52.6875,18.45899 -3.37165,1.46049 -8.8901,3.82871 -12.26172,5.26367 -7.58742,3.22914 -46.0981,22.77219 -51.39258,26.08008 -2.13551,1.33421 -6.1308,3.8044 -8.87891,5.49023 -2.74807,1.68582 -9.22755,5.82369 -14.39843,9.19531 -5.1709,3.37164 -10.68292,6.89761 -12.25,7.83399 -1.56711,0.9364 -4.37528,3.09133 -6.24024,4.78906 -9.30416,8.46994 -17.7228,8.73616 -29.90234,0.94531 -13.04487,-8.34434 -20.23242,-16.83989 -20.23242,-23.91211 0,-3.16125 0.53239,-5.74804 1.18359,-5.74804 0.6512,0 2.41191,-2.24104 3.91211,-4.98047 1.5002,-2.73946 5.96816,-7.38774 9.92773,-10.32813 3.9597,-2.94038 8.31454,-6.56001 9.67774,-8.04492 1.3632,-1.4849 2.9943,-2.69922 3.625,-2.69922 0.6307,0 5.72218,-3.02963 11.31445,-6.73242 10.40031,-6.88629 18.87247,-11.90411 27.02734,-16.00586 2.52874,-1.27189 6.73156,-3.91685 9.33985,-5.87891 2.60828,-1.96201 5.22696,-3.56836 5.82031,-3.56836 0.59333,0 13.80886,-6.20678 29.36719,-13.79296 15.5583,-7.5862 29.27691,-13.79297 30.48633,-13.79297 1.20938,0 2.56613,-0.59498 3.01562,-1.32227 0.44948,-0.72729 4.11117,-2.19919 8.13672,-3.27148 4.02555,-1.07229 8.69897,-2.76742 10.38476,-3.76758 5.28918,-3.13795 25.29388,-10.0293 29.11524,-10.0293 2.00932,0 4.0327,-0.6135 4.49609,-1.36328 0.87238,-1.41153 1.6873,-1.59074 24.62696,-5.43945 42.12667,-7.06787 46.33808,-7.37474 101.91601,-7.42774 l -4e-5,5.5e-4 c 35.05275,-0.0334 57.40326,0.57123 62.83399,1.69922 4.63598,0.96292 16.36122,2.82755 26.05468,4.14453 22.06814,2.99826 49.61508,10.68466 71.26368,19.88477 2.5287,1.07465 6.32243,2.45974 8.42968,3.07812 2.10728,0.61838 4.5204,1.63964 5.36328,2.26954 0.84291,0.62987 4.29049,1.96941 7.66211,2.97656 7.05868,2.10852 18.03274,6.53341 19.15822,7.72461 0.42146,0.44607 2.4904,1.61768 4.59765,2.60351 26.4058,12.35319 39.76977,19.06117 40.57813,20.36914 0.53954,0.873 2.04949,1.58789 3.35351,1.58789 1.30406,0 4.98303,2.06893 8.17578,4.59766 3.19279,2.52874 6.2701,4.59766 6.83985,4.59766 1.96703,0 15.40525,9.85562 22.66211,16.62109 4.76947,4.44653 7.27929,8.05391 7.2793,10.45898 -10e-6,4.75352 -3.66286,13.48143 -8.88282,21.16602 -8.3916,12.35378 -9.37424,13.05664 -18.23047,13.05664 -6.75134,0 -10.49244,-1.22504 -21.55664,-7.06055 -7.3633,-3.88353 -15.2205,-8.36559 -17.46093,-9.96093 -2.24047,-1.59536 -4.77174,-2.90235 -5.625,-2.90235 -0.85327,0 -1.78152,-0.5973 -2.0625,-1.32812 -0.49866,-1.29707 -47.09654,-24.72461 -49.17775,-24.72461 -0.57756,0 -5.03652,-1.8299 -9.9082,-4.06641 -4.87173,-2.2365 -10.92634,-4.61493 -13.45508,-5.28515 -5.36451,-1.4219 -22.47645,-6.84871 -29.11914,-9.23438 -2.52874,-0.90819 -8.04716,-2.55888 -12.26172,-3.66992 -4.21456,-1.11103 -11.79543,-3.14508 -16.84766,-4.51953 -13.04143,-3.54789 -36.61085,-3.90507 -39.93359,-0.60547 -3.93485,3.90744 -5.07795,25.60156 -6.20508,117.80273 l -1.02148,83.52344 c 0.92182,0.90552 3.44231,175.78266 3.44231,175.78266 l 171.76864,-0.30219 h 120.98242 v 48.27539 48.27539 H 826.75741 l -116.05271,1.68905 c -1.05061,0.30112 -64.66903,-0.36883 -64.66903,-0.36883 1.17931,184.02507 0.61361,-0.0239 1.5772,182.5875 0.002,0.40108 -0.73047,43.0304 -0.73047,95.6231 v 95.62294 l 4.44726,4.7598 c 14.53352,13.6822 59.49506,-3.1044 77.88868,-9.1211 12.59379,-3.3496 24.2129,-9.28208 36.43945,-13.6347 16.40096,-5.6341 80.29171,-39.3819 81.73634,-43.1738 0.28098,-0.7375 1.43083,-1.3399 2.55468,-1.3399 1.12388,0 2.2737,-0.5652 2.55469,-1.2558 0.65489,-1.6098 16.31025,-12.06584 27.74219,-18.52744 11.40592,-6.4468 17.41236,-5.718 28.01953,3.4004 12.9846,11.16224 20.6094,19.83624 20.6094,23.44534 0,2.0522 -2.6379,5.9981 -6.5117,9.7344 -9.9508,9.5975 -31.66229,25.9398 -40.23051,30.2832 -4.21456,2.1365 -7.89286,4.4872 -8.17383,5.2226 -0.28098,0.7354 -1.17172,1.3359 -1.97852,1.3359 -0.80676,0 -3.33526,1.2898 -5.61914,2.8653 -10.13198,6.9898 -26.11808,16.7067 -31.73828,19.291 -3.37162,1.5504 -6.47502,3.2346 -6.89648,3.7422 -0.73709,0.8877 -2.41722,1.8925 -12.85352,7.6933 -4.50352,2.5032 -46.32319,18.4588 -54.58009,20.8243 -2.10725,0.6037 -5.89899,1.9743 -8.42773,3.0449 -6.94539,2.9405 -27.13699,8.4553 -30.94531,8.4453 -1.8468,0 -3.72512,0.5911 -4.17578,1.3203 -0.45065,0.7292 -3.42403,1.7324 -6.60547,2.2285 -3.18147,0.496 -12.33612,2.037 -20.34375,3.4258 -24.58338,4.2638 -32.04497,5.1216 -58.23633,6.6875 -34.98016,2.0913 -72.51919,1.0305 -94.25391,-2.6641 -5.05744,-0.8598 -14.36764,-2.3511 -20.68945,-3.3125 -17.46816,-2.6566 -60.11267,-13.4597 -69.73242,-17.666 -2.52874,-1.1058 -10.25825,-4.1388 -17.17774,-6.7402 -6.91945,-2.6014 -14.851,-5.7095 -17.625,-6.9063 -2.77397,-1.1969 -7.80221,-3.3493 -11.17382,-4.7832 -8.39608,-3.5707 -30.23435,-14.4342 -41.37891,-20.5839 -5.05748,-2.7909 -12.29869,-6.7726 -16.0918,-8.8457 -3.79307,-2.0734 -9.09217,-5.4247 -11.77539,-7.4493 -2.61371,-1.9722 -20.60721,-11.99886 -27.20508,-19.3026 -5.10017,-5.8184 -5.54105,-7.0156 -4.65625,-12.6446 1.1341,-7.2155 4.02497,-14.6464 5.69727,-14.6464 2.13924,-3.96571 5.39993,-8.26559 8.69726,-11.877 8.8113,-9.47024 13.55317,-10.27072 24.64454,-4.1602 10.79113,5.89534 19.67384,11.80003 29.85937,17.9493 1.67192,1.0556 5.80979,3.6685 9.19531,5.8066 15.1632,9.576 73.07671,35.8019 83.02149,37.5956 3.2412,0.5846 6.5849,1.607 7.43164,2.2715 2.26086,1.7743 28.53406,9.7851 44.4375,13.5488 15.50043,3.6688 35.13776,4.3291 38.18164,1.2852 5.3629,-5.3628 5.49805,-7.6806 5.49805,-95.26954 v -86.6894 c -0.91342,-74.8949 -3.74734,-161.35316 -2.68678,-204.84884 -15.62469,0.97795 -198.85543,0.85915 -204.2824,0.86352 m 125.90893,83.11387 c 0.43395,27.85262 0.57833,68.18844 0.93034,87.77815 0.0301,1.6754 -0.45702,10.94768 -0.0462,58.16515 0.46071,52.95495 0.90373,60.48065 -1.6051,65.14485 -2.69456,5.0094 -3.00579,5.1395 -10.68946,4.4726 -4.35274,-0.3777 -10.92985,-2.27546 -14.71484,-4.0097 -22.21855,-10.18026 -42.63634,-22.39029 -62.16406,-36.2383 -5.90039,-4.1627 -11.46775,-8.2871 -12.37305,-9.166 -0.90532,-0.879 -3.91638,-3.3224 -6.69141,-5.4297 -10.3372,-7.8498 -19.9838,-19.037 -20,-23.1953 -0.0304,-7.7846 4.72327,-9.0975 38.04883,-10.5137 33.0239,-1.4033 38.50092,-2.6967 47.375,-11.1758 l 4.98242,-4.7578 -0.0176,-17.707 c -0.009,-9.7389 -0.44433,-20.2942 -0.9668,-23.4551 l -0.94922,-5.7461 H 328.74763 c -116.26766,0 -112.84135,1.7619 -114.59906,4.53056 -2.39629,3.77451 6.01613,12.67603 8.61841,19.05061 1.11835,2.73952 4.03963,8.3175 7.48033,13.7964 3.44067,5.4789 8.02302,12.26164 9.18002,14.56544 1.157,2.3038 2.3924,5.27439 3.9434,6.93919 1.551,1.6648 3.51167,4.135 3.51167,4.5162 0,0.3813 2.79687,5.6285 6.21484,11.6602 6.4769,11.4306 8.76533,21.7944 6.50196,29.459 -1.6313,5.5242 -23.01794,27.2832 -26.81641,27.2832 -1.6371,0 -3.86347,-0.8869 -4.94727,-1.9707 -3.72537,-3.7254 -16.20117,-19.4442 -16.20117,-20.4121 0,-0.5328 -2.09229,-3.4737 -4.65039,-6.5352 -7.25737,-8.6857 -7.51771,-9.0485 -9.39648,-13.1719 -0.9745,-2.1389 -2.24161,-3.8886 -2.81641,-3.8886 -9.54923,-13.04613 -16.80476,-27.9823 -25.53906,-41.3516 l -35.71875,-84.64062 c -2.4534,-9.14509 -1.082,-16.5555 3.9375,-21.27149 l 3.93164,-3.69335 150.68554,-0.40626 c 0,0 139.41862,-0.25339 182.43817,0.93039 m 0.1673,-471.78723 h 3.62696 v 109.57813 109.57812 l -142.14453,-0.25781 c -157.61168,-0.28682 -183.37174,-0.95917 -192.72071,-5.0293 -13.50584,-5.87976 -16.21608,-13.3755 -9.72461,-26.89648 1.8211,-3.7931 3.89157,-8.09496 4.60157,-9.55859 0.70997,-1.46367 1.29101,-3.70467 1.29101,-4.98047 0,-1.2758 0.56501,-2.32032 1.25391,-2.32032 0.689,0 2.48318,-3.9068 3.98828,-8.68164 2.3769,-7.54021 24.6502,-53.58361 26.9375,-55.68554 0.4586,-0.42146 1.7094,-2.49038 2.7793,-4.59766 2.52377,-4.97105 4.56339,-8.39093 10.63476,-17.82031 2.7394,-4.25466 4.98047,-8.53774 4.98047,-9.51758 0,-0.97985 0.6903,-1.78125 1.5332,-1.78125 0.8429,0 1.53321,-0.95387 1.53321,-2.11914 0,-1.16527 4.88956,-7.02594 10.86523,-13.02539 12.23347,-12.28204 15.13712,-13.13773 24.05469,-7.07813 3.1011,2.10728 6.25848,3.83204 7.01758,3.83204 0.7591,0 2.49617,1.21434 3.85937,2.69921 1.3632,1.48491 5.73773,5.1065 9.7207,8.04688 8.3631,6.17378 10.14563,9.80403 6.68946,13.62305 -1.3403,1.48104 -2.4375,3.24065 -2.4375,3.91015 0,0.66951 -3.0075,5.44293 -6.6836,10.60742 -3.67617,5.1645 -8.25199,12.49206 -10.16796,16.28516 -1.916,3.79311 -3.90884,7.2426 -4.42774,7.66406 -1.2142,0.98605 -5.41369,8.46971 -8.60156,15.32617 -1.3717,2.95019 -3.83315,8.12252 -5.46875,11.49414 -3.677,7.57985 -3.75098,10.8136 -0.28321,12.36719 5.1629,2.31303 41.56917,3.84972 109.89258,4.64063 45.1341,0.52247 69.9776,0.26105 72.03125,-0.75782 1.72419,-0.85537 6.92845,-1.84417 11.56446,-2.19921 18.08669,-1.38511 26.24806,-6.36048 28.4375,-17.33594 1.65288,-8.2859 0.1251,-38.50613 -2.05664,-40.68359 -1.3048,-1.30222 -9.33634,-2.32609 -23.75586,-3.0293 -11.98097,-0.58429 -25.92105,-1.76664 -30.97852,-2.62696 -34.75991,-5.91303 -32.94922,-5.29254 -32.94922,-11.27734 0,-3.8581 1.99252,-6.71121 10.54688,-15.09766 5.80071,-5.68682 17.35191,-15.02086 25.66992,-20.74218 8.31801,-5.72133 15.46916,-10.82713 15.89062,-11.34766 0.42146,-0.52052 1.8001,-1.40826 3.06446,-1.97266 1.26437,-0.56436 7.12699,-4.15154 13.02734,-7.9707 5.90036,-3.81911 11.76103,-7.31038 13.02539,-7.75976 1.26437,-0.44938 7.12699,-3.15323 13.02734,-6.00782 14.5951,-7.06106 26.49633,-11.49414 30.85547,-11.49414 z m 256.75,2.68164 6.99805,0.95899 c 8.91828,1.22239 48.5439,21.21599 64.01759,32.30078 2.52874,1.8115 6.46679,4.22366 8.75195,5.35937 5.46552,2.71637 23.22684,17.36424 31.64258,26.09766 10.97956,11.39404 11.70608,16.98219 2.90234,22.30664 -4.51402,2.7301 -8.40657,3.06012 -41.38086,3.49805 l -36.39844,0.48242 v 32.92187 32.92188 l 106.89649,-0.45508 c 119.03721,-0.50608 114.91201,-0.13803 113.04691,-10.08008 -1.2034,-6.41436 -7.1976,-18.8981 -12.4102,-25.84765 -1.9895,-2.6524 -5.7562,-9.30299 -8.3711,-14.77735 -2.6149,-5.47433 -5.9299,-11.23405 -7.3652,-12.80078 -1.4353,-1.56673 -4.2911,-5.2627 -6.3477,-8.21289 -2.0566,-2.9502 -4.6056,-6.25682 -5.664,-7.34765 -8.5755,-8.83856 -10.8871,-32.37303 -4.4805,-45.62305 5.1239,-10.5971 14.2244,-20.5918 18.748,-20.5918 2.0058,0 3.6645,0.51626 3.6836,1.14844 0.019,0.63219 5.2315,6.66687 11.584,13.41016 6.3526,6.74327 14.3882,16.39763 17.8574,21.45507 3.4692,5.05747 6.76358,9.54143 7.32028,9.96289 0.5568,0.42145 3.2567,4.9035 6,9.96094 2.7434,5.05748 5.8633,10.22977 6.9336,11.49414 1.0704,1.26436 4.1818,6.4367 6.9141,11.49414 2.7323,5.05747 5.4162,9.54143 5.9629,9.96289 1.1758,0.90626 4.0642,5.83784 8.9746,15.32422 1.9635,3.7931 4.7804,8.96736 6.2598,11.4961 1.4795,2.5287 4.3902,8.38937 6.4687,13.02539 2.0785,4.63598 4.1664,8.77386 4.6406,9.19531 1.5368,1.36576 6.0664,11.89517 6.0664,14.10156 0,1.17913 0.6047,2.79884 1.3438,3.59961 0.7391,0.80077 3.1541,6.57334 5.3652,12.82813 3.0279,8.56532 4.0196,14.33552 4.0196,23.37304 v 11.99805 H 898.91952 726.43513 l 0.52539,-101.53125 c 0.40083,-77.41518 0.99274,-102.94294 2.49414,-107.4707 z M 904.42732,716.489 h 165.44338 l -0.053,6.51367 c -0.059,7.10728 -3.4759,29.3806 -5.8183,37.93164 -2.2082,8.06105 -5.4575,16.33705 -11.586,29.50785 -3.0413,6.5361 -5.5312,12.5495 -5.5312,13.3633 0,0.8137 -1.4946,4.0869 -3.3223,7.2734 -1.8277,3.1865 -4.8323,8.5522 -6.6777,11.9238 -6.8127,12.4475 -16.139,28.3637 -17.961,30.6524 -0.671,0.8428 -4.0429,5.8207 -7.4921,11.0625 -3.4494,5.2417 -9.6121,12.6551 -13.69538,16.4746 -6.4856,6.0666 -8.2783,6.9453 -14.1855,6.9453 -5.6326,0 -8.1408,-1.0856 -15.0098,-6.4942 -4.5354,-3.5711 -8.9574,-7.1908 -9.8281,-8.0449 -3.6148,-3.5463 -8.3789,-11.4 -8.3789,-13.8125 0,-1.4246 3.1781,-7.3275 7.0625,-13.1172 3.8844,-5.7896 8.1944,-12.5861 9.5781,-15.1035 9.4577,-17.2057 13.0448,-23.1211 14.0157,-23.1211 1.5952,0 9.1894,-17.4263 9.1894,-21.0859 0,-1.8183 -1.4102,-3.5641 -3.4473,-4.2656 -7.3039,-2.5155 -44.981,-3.882 -128.73628,-4.668 l -86.97267,-0.8164 v 30.6328 30.6328 l 8.04687,0.959 c 4.42528,0.5272 17.39226,1.19009 28.73439,2.4062 56.86752,6.09735 59.37438,4.20895 44.10312,19.41845 -8.29197,8.2584 -8.8214,9.15934 -17.97449,15.53394 -2.95019,2.0547 -6.04386,4.83099 -6.46532,5.30099 l -43.15156,28.0521 c -0.87269,0.9717 -9.81609,5.24438 -25.41822,13.06358 -5.90036,2.9571 -12.53344,6.56505 -14.64069,7.64425 -7.60284,3.8938 -13.69826,4.88099 -16.70285,1.56099 -2.60945,-2.8835 -2.73129,-8.461 -2.25,-102.4082 0.4711,-91.96075 0.71297,-99.76791 3.26367,-104.89067 1.51572,-3.04414 4.47962,-6.3196 6.58594,-7.2793 2.78826,-1.27039 48.8205,-1.74609 169.27539,-1.74609 z"
       sodipodi:nodetypes="ssssssssssssssssssscscscscsssssssscscssscccsssssssssssscsssssssssssssssssccssssssssssssssssssssssssssssssssssssssssscccscssssccsssssssssssssssssssssssccccccsccccssssssssssssssscsssssssssssssssssssssssssssssssssssssssssssccccccccccssccsssssssssssscssssscssssssssssscsssssssssscssccccsssssssssscccccssssssscsssssscccccccsccccssssscscsssscssscsssscsssssssssssssssssssccsssscccccssssscsssssssssssssssssscccccccccssssssssssssssssssccccsssccsssssssc" />
    <path
       style="fill:#000000;stroke-width:0.766284"
       d=""
       id="path1602" />
    <path
       style="fill:#f9a602;fill-opacity:1;stroke:#f9a602;stroke-width:1.17395;stroke-miterlimit:4;stroke-dasharray:none;stroke-opacity:1"
       d="m 177.59907,460.80209 c -15.1724,-0.60982 -29.3492,-1.8097 -31.504,-2.66641 -7.2413,-2.87897 -13.7067,-9.49577 -13.7067,-14.02763 0,-4.25108 12.906,-35.59079 27.3648,-66.45012 13.2484,-28.27618 34.9529,-63.34541 46.423,-75.00842 5.6024,-5.6967 11.4039,-10.35764 12.8922,-10.35764 5.5158,0 34.4224,19.92645 36.4062,25.09634 0.444,1.15695 -2.4427,7.19047 -6.4148,13.40782 -19.3617,30.30568 -35.4454,60.40011 -35.4454,66.32231 0,1.28996 1.4382,3.11508 3.196,4.05581 5.0003,2.67608 45.5029,4.36327 115.57798,4.81455 56.22162,0.36206 66.28756,0.0694 79.53687,-2.3128 27.47729,-4.94031 29.32016,-7.18129 29.16773,-35.46848 -0.14017,-26.01228 -0.32564,-26.34022 -15.58425,-27.55799 -34.42297,-2.74727 -48.35347,-4.28962 -60.17016,-6.66189 -12.05592,-2.4203 -13.06105,-2.90942 -13.48599,-6.56272 -1.15531,-9.93213 54.23877,-51.90538 91.02696,-68.97306 14.51454,-6.73394 28.88346,-12.1369 32.2775,-12.1369 1.70406,0 2.05893,18.62258 2.05893,108.04597 v 108.04598 l -136.01533,-0.24798 c -74.80844,-0.13639 -148.42914,-0.74692 -163.60154,-1.35674 z"
       id="path20946" />
    <path
       style="fill:#f9a602;fill-opacity:1;stroke:#f9a602;stroke-width:1.17395;stroke-miterlimit:4;stroke-dasharray:none;stroke-opacity:1"
       d="m 728.92239,359.34169 c 0.54292,-70.92632 1.30552,-102.85301 2.52984,-105.91298 1.61264,-4.0305 2.20971,-4.30009 7.47464,-3.375 16.44028,2.88872 75.12288,37.20429 95.64814,55.93176 12.85397,11.7281 17.41737,18.67335 15.10649,22.99126 -3.33629,6.23391 -7.04242,6.84175 -45.64565,7.48626 l -37.16475,0.62049 v 34.30918 34.30918 l 67.81609,-0.13931 c 37.29885,-0.0766 86.59045,-0.59976 109.53689,-1.16251 49.20264,-1.20669 48.21056,-0.88727 44.32015,-14.26984 -1.31896,-4.53705 -5.94429,-14.08776 -10.27853,-21.22379 -4.33422,-7.13603 -9.46199,-16.0957 -11.39503,-19.91037 -1.93303,-3.81467 -7.49459,-12.08691 -12.35902,-18.38275 -4.86443,-6.29584 -9.76319,-14.49988 -10.88616,-18.23121 -2.73649,-9.0927 -2.57672,-21.03922 0.39814,-29.76997 2.52911,-7.42254 14.73916,-22.50412 18.21933,-22.50412 2.31511,0 25.20492,25.71052 34.79292,39.08046 11.60842,16.18735 39.35232,63.63544 51.07912,87.35632 17.6694,35.74182 21.0794,45.23269 21.888,60.91954 l 0.6913,13.40996 H 899.41974 728.14518 Z"
       id="path23167" />
    <path
       style="fill:#f9a602;fill-opacity:1;stroke:#f9a602;stroke-width:1.17395;stroke-miterlimit:4;stroke-dasharray:none;stroke-opacity:1"
       d="m 728.76782,932.53177 c -2.00508,-1.26956 -2.29885,-14.24125 -2.29885,-101.5091 0,-98.17333 0.0592,-100.15433 3.14841,-105.41752 2.61667,-4.45803 4.29915,-5.53893 9.96169,-6.39981 3.7473,-0.5697 79.05465,-1.08694 167.34967,-1.14942 l 160.53636,-0.1136 v 5.92951 c 0,8.01647 -4.1051,31.38508 -7.1697,40.81378 -4.9085,15.10201 -20.1115,48.19099 -30.3599,66.07797 -27.0209,47.1605 -41.22682,61.13656 -54.90828,54.01983 -6.45517,-3.35781 -18.80975,-14.84387 -21.6609,-20.13814 l -2.87899,-5.34596 4.07421,-6.69382 c 2.24079,-3.6816 9.23517,-14.96969 15.54303,-25.08463 17.37076,-27.85481 22.3213,-38.98551 19.36133,-43.53166 -0.77076,-1.1838 -5.43278,-2.72841 -10.36007,-3.43247 -8.93633,-1.27691 -136.13228,-4.26179 -184.82077,-4.33714 l -25.6705,-0.0397 v 32.1839 c 0,24.72401 0.44404,32.18452 1.91571,32.18655 8.47885,0.0117 78.25564,6.56302 82.75862,7.77019 3.16092,0.8474 5.74713,2.39779 5.74713,3.44533 0,4.16179 -26.19122,26.77205 -43.25493,37.34095 -3.83117,2.37295 -12.24915,7.8928 -18.70663,12.26632 -13.20867,8.94597 -59.26408,32.67376 -63.34946,32.6377 -1.46208,-0.0129 -3.69281,-0.67848 -4.95718,-1.47904 z"
       id="path23206" />
    <path
       style="fill:#000000;fill-opacity:1;stroke:#000000;stroke-width:0.207526;stroke-miterlimit:4;stroke-dasharray:none;stroke-opacity:1"
       d=""
       id="path24334" />
    <path
       style="fill:#f9a602;fill-opacity:1;stroke:#f9a602;stroke-width:0.766284;stroke-opacity:1"
       d="m 355.09391,847.70214 c 5.96762,-1.06253 18.85526,-3.05666 61.76594,-5.38866 11.05908,-0.60101 20.48279,-11.41197 22.22104,-13.97105 0.82826,-1.21938 0.22877,-49.53888 -1.85305,-48.85202 -0.71471,0.2358 -207.08947,1.82846 -214.24184,2.33985 -6.41659,0.45878 -11.52417,3.46181 -8.39357,9.07368 10.80125,21.50152 37.5712,60.75703 43.06184,77.11353 1.3835,4.12151 1.9371,7.40518 1.9371,11.48998 0,5.56935 -0.09,5.84148 -3.431,10.37999 -4.1352,5.61725 -14.8223,16.53092 -19.4809,19.89387 -3.6848,2.65998 -3.5704,2.62769 -5.9317,1.67472 -1.7904,-0.72259 -11.6881,-12.43517 -16.1947,-19.16414 -1.5524,-2.31801 -5.2791,-7.31801 -8.2816,-11.11111 -3.0025,-3.79311 -6.4265,-8.7069 -7.609,-10.91954 -1.1824,-2.21265 -2.409,-4.02299 -2.7257,-4.02299 -0.3167,0 -1.9412,-2.16196 -3.61,-4.80435 -6.52975,-9.13012 -12.13007,-21.24929 -13.0535,-21.24929 -0.3314,0 -1.3943,-1.63793 -2.362,-3.63985 -0.9676,-2.00191 -3.4516,-6.44873 -5.5198,-9.8818 -2.0683,-3.43307 -3.9882,-7.38073 -4.2666,-8.77257 -0.2783,-1.39184 -1.351,-3.75537 -2.3836,-5.25229 -13.77843,-24.45477 -21.73704,-44.33624 -27.8144,-65.09789 -4.3894,-14.99491 -3.9447,-21.14723 1.968,-27.23097 l 3.1516,-3.24276 150.503,-0.4884 c 118.15975,-0.38343 182.40189,-0.1744 182.40545,0.69654 l 0.82476,201.79475 c 0,0 -1.28985,11.47271 -4.65979,11.19442 -12.21646,14.70266 -151.28694,-76.2835 -116.02598,-82.56165 z"
       id="path131882"
       sodipodi:nodetypes="ssssssssssssssssssssssscssccs" />
    <path
       style="fill:#002a00;fill-opacity:1;stroke-width:0.541844"
       d=""
       id="path27" />
  </g>
</svg>
